<?xml version="1.0" encoding="UTF-8" standalone="no"?>
<svg width="51px" height="88px" viewBox="0 0 51 88" version="1.1" xmlns="http://www.w3.org/2000/svg" xmlns:xlink="http://www.w3.org/1999/xlink" xmlns:sketch="http://www.bohemiancoding.com/sketch/ns">
    <!-- Generator: Sketch 3.2.1 (9977) - http://www.bohemiancoding.com/sketch -->
    <title>beer</title>
    <desc>Created with Sketch.</desc>
    <defs></defs>
    <g id="Page-1" stroke="none" stroke-width="1" fill="none" fill-rule="evenodd" sketch:type="MSPage">
        <g id="Portrait-Retina" sketch:type="MSArtboardGroup" transform="translate(-437.000000, -439.000000)">
            <g id="beer" sketch:type="MSLayerGroup" transform="translate(437.000000, 439.000000)">
                <path d="M47,77.3 C46.8,77.5 46.6,77.71 46.39,77.93 C46.16,77.39 45.63,77 45,77 L13,77 C12.37,77 11.84,77.39 11.61,77.93 C11.4,77.71 11.2,77.5 11,77.3 L11,43 C13.75,43 17,40.75 17,38 L17,28 L44,28 C44.83,28 45.5,27.33 45.5,26.5 C45.5,25.67 44.83,25 44,25 L17,25 C17,25 16.99,16.02 17,16 L41,16 C42.26,20.37 44.92,23.36 47,25 L47,77.3 Z M42,84 L16,84 C15.33,82.58 13,80 13,80 L45,80 C45,80 42.67,82.58 42,84 Z" id="beer-can-path-2" fill="#E8E8E8" sketch:type="MSShapeGroup"></path>
                <path d="M13,72 L45,49 L45,32 L13,55 L13,72 L13,72 Z M24,6 C23.25,2.36 19.86,0 16,0 C12.27,0 9.14,2.56 8.26,6.01 C8.17,6.01 8.09,6 8,6 C3.58,6 0,9.58 0,14 C0,16.56 1.2,18.83 3.07,20.29 C2.4,21.37 2,22.64 2,24 C2,26.79 3.64,29.19 6,30.32 L6,38 C6,39.12 6.38,40.14 7.01,40.98 L7,40.97 L7,79 C7,79 13,84.5 13,88 L45,88 C45,84.5 51,79 51,79 L51,23 C51,23 44,19 44,12 L34,12 L36,5 C36.78,2.36 35.75,0 33,0 L30.7,0 C27.95,0 25,3 24,6 L24,6 Z M27,7 C28,4 29,3 31,3 C34,3 33,5 32,7 L27,7 L27,7 Z M29,10 C30.34,10 31.92,10.84 32,12 L25,12 C25.76,10.84 27.66,10 29,10 L29,10 Z M9,38 L9,28 L7.29,27.61 C5.88,26.94 5,25.55 5,24 C5,23.26 5.21,22.52 5.61,21.89 L7.04,19.6 L4.91,17.93 C3.7,16.97 3,15.54 3,14 C3,11.26 5.26,9.02 8,9 L11,9 L11,7 C11.57,4.79 13.72,3 16,3 C18.76,3 21,5.24 21,8 L21,12 L13,12 L13,38 C13,38.77 12.36,40 11,40 C9.92,40 9,39.08 9,38 L9,38 Z M42,84 L16,84 C15.33,82.58 13,80 13,80 L45,80 C45,80 42.67,82.58 42,84 L42,84 Z M47,77.3 C46.8,77.5 46.6,77.71 46.39,77.93 C46.16,77.39 45.63,77 45,77 L13,77 C12.37,77 11.84,77.39 11.61,77.93 C11.4,77.71 11.2,77.5 11,77.3 L11,43 C13.75,43 17,40.75 17,38 L17,28 L44,28 C44.83,28 45.5,27.33 45.5,26.5 C45.5,25.67 44.83,25 44,25 L17,25 C17,25 16.99,16.02 17,16 L41,16 C42.26,20.37 44.92,23.36 47,25 L47,77.3 L47,77.3 Z" id="beer-can" fill="#000000" sketch:type="MSShapeGroup"></path>
                <path d="M13,72 L45,49 L45,32 L13,55 L13,72 L13,72 Z" id="beer-can-path-3" fill="#F47958" sketch:type="MSShapeGroup"></path>
            </g>
        </g>
    </g>
</svg>