<?xml version="1.0" encoding="UTF-8" standalone="no"?>
<svg width="56px" height="75px" viewBox="0 0 56 75" version="1.1" xmlns="http://www.w3.org/2000/svg" xmlns:xlink="http://www.w3.org/1999/xlink" xmlns:sketch="http://www.bohemiancoding.com/sketch/ns">
    <!-- Generator: Sketch 3.2.1 (9977) - http://www.bohemiancoding.com/sketch -->
    <title>coffee</title>
    <desc>Created with Sketch.</desc>
    <defs></defs>
    <g id="Page-1" stroke="none" stroke-width="1" fill="none" fill-rule="evenodd" sketch:type="MSPage">
        <g id="Portrait-Retina" sketch:type="MSArtboardGroup" transform="translate(-579.000000, -452.000000)">
            <g id="coffee" sketch:type="MSLayerGroup" transform="translate(578.000000, 452.000000)">
                <path d="M43.575,30.989 C40.963,33.213 39.339,36.738 39.339,40.19 C39.339,45.905 42.68,50.637 47.009,51.431 L46.585,55.09 L11.287,55.09 L7.894,25.832 L49.977,25.832 L49.634,28.785 C47.506,28.716 45.386,29.447 43.575,30.989 L43.575,30.989 Z" id="Path-2" fill="#B1DACE" sketch:type="MSShapeGroup"></path>
                <g id="Group" fill="#000000" sketch:type="MSShapeGroup">
                    <path d="M56.821,13.655 L55.995,7.858 C55.923,7.351 55.49,6.976 54.978,6.976 L53.3,6.976 L50.717,0.67 C50.559,0.285 50.184,0.032 49.767,0.032 L7.236,0.032 C6.805,0.032 6.42,0.301 6.272,0.706 L3.972,6.976 L2.893,6.976 C2.382,6.976 1.949,7.351 1.876,7.858 L1.01,13.934 C0.968,14.228 1.056,14.525 1.251,14.752 C1.447,14.977 1.73,15.105 2.027,15.105 L4.584,15.105 L11.423,74.092 C11.484,74.61 11.923,75 12.444,75 L45.429,75 C45.95,75 46.389,74.609 46.45,74.092 L53.289,15.105 L55.846,15.105 L55.886,15.105 C56.453,15.105 56.913,14.646 56.913,14.079 C56.912,13.928 56.88,13.783 56.821,13.655 L56.821,13.655 Z M7.954,2.085 L49.078,2.085 L51.081,6.976 L6.16,6.976 L7.954,2.085 L7.954,2.085 Z M44.514,72.947 L13.358,72.947 L11.525,57.144 L46.346,57.144 L44.514,72.947 L44.514,72.947 Z M43.575,30.989 C40.963,33.213 39.339,36.738 39.339,40.19 C39.339,45.905 42.68,50.637 47.009,51.431 L46.585,55.09 L11.287,55.09 L7.894,25.832 L49.977,25.832 L49.634,28.785 C47.506,28.716 45.386,29.447 43.575,30.989 L43.575,30.989 Z M50.217,23.779 L7.657,23.779 L6.651,15.105 L51.221,15.105 L50.217,23.779 L50.217,23.779 Z M52.374,13.051 L5.498,13.051 L3.21,13.051 L3.784,9.029 L54.089,9.029 L54.662,13.051 L52.374,13.051 L52.374,13.051 Z" id="Shape"></path>
                </g>
            </g>
        </g>
    </g>
</svg>