<?xml version="1.0" encoding="UTF-8" standalone="no"?>
<svg width="48px" height="87px" viewBox="0 0 48 87" version="1.1" xmlns="http://www.w3.org/2000/svg" xmlns:xlink="http://www.w3.org/1999/xlink" xmlns:sketch="http://www.bohemiancoding.com/sketch/ns">
    <!-- Generator: Sketch 3.2.1 (9977) - http://www.bohemiancoding.com/sketch -->
    <title>ice cream</title>
    <desc>Created with Sketch.</desc>
    <defs></defs>
    <g id="Page-1" stroke="none" stroke-width="1" fill="none" fill-rule="evenodd" sketch:type="MSPage">
        <g id="Portrait-Retina" sketch:type="MSArtboardGroup" transform="translate(-509.000000, -441.000000)">
            <g id="ice-cream" sketch:type="MSLayerGroup" transform="translate(510.000000, 442.000000)">
                <path d="M13.2934573,28.4790001 C10.3724519,28.1553904 4.497,25.436 4.497,25.436 C2.536,26.377 4.497,25.436 2.876,26.918 C1.682,28.01 0.716,29.277 0.451,30.89 C0.214,32.332 0.433,33.8 0.801,35.208 C1.204,36.752 2.063,38.122 3.203,39.174 C4.122,40.022 5.389,40.482 6.628,40.834 C9.285,41.588 11.98,42.201 14.706,42.62 C17.065,42.983 19.449,43.156 21.841,43.234 C23.308,43.282 24.777,43.329 26.24,43.272 C28.286,43.193 30.333,43.061 32.369,42.842 C35.675,42.486 38.897,41.711 42.119,40.892 C43.394,40.568 43.781,39.703 44.254,38.81 C45.344,36.754 45.585,34.625 44.327,32.552 C43.8109806,31.7019874 43.1232959,31.0713593 42.3236268,30.5971575 C41.6867352,30.2194824 40.9788093,29.9410321 40.23,29.73 C37.848,29.06 35.405,28.84 32.947,28.721 C29.823,28.569 26.693,28.773 23.574,28.62 C21.552,28.521 19.529,28.624 17.517,28.479 C15.6060233,28.3079413 13.9852532,28.1216428 12.6136315,27.9229668 C11.2565785,27.726401 10.1434093,27.5177192 9.23436046,27.2996933 C6.95854309,26.7538622 5.96206696,26.1494663 5.621,25.53 C5.168,24.707 0.352,19.458 8.982,14.011 C8.982,14.011 14.374,10.166 16.332,7.785 L19.3896484,5.19726562 L23.1621094,3.90527344 L24.9804688,1.07080078 L27.6728516,2.89990234 L29.0678711,4.81054688 L30.1152344,7.53027344 L36.015625,10.9990234 L38.9736328,13.5439453 L40.097168,15.8295898 L38.9736328,19.5532227 L41.6606445,21.1601562 L43.7880859,24.2539062 L44.3525391,27.6352539 L42.925293,29.6933594 C42.925293,29.6933594 23.1818829,29.5745102 13.2934573,28.4790001 Z" id="Shape-3" fill="#C8D7AC" sketch:type="MSShapeGroup"></path>
                <path d="M41.817,54.754 C38.22,58.723 35.5,58.5 35.481,61.919 C35.074,63.612 34.767,65.317 34.558,67.042 C34.195,70.037 31.867,82.909 30.842,83.421 C25.008,86.332 16.198,83.745 15.242,83.248 C14.173,82.692 13.588,81.675 13.375,80.524 C13.121,79.151 12.78,77.798 12.533,76.423 C12.103,74.026 11.799,71.616 11.489,69.206 C11.279,67.574 11.129,65.935 10.926,64.301 C10.798,63.269 10.713,62.232 10.554,61.201 C10.407,60.244 10.013,59.378 9.579,58.549 C9.322,58.057 8.68,57.776 8.159,57.7 C6.486,57.453 5.983,56.074 4.923,54.756 L4.67675781,44.0595703 L2.43994141,39.9555664 L9.9140625,41.8764648 L22.1210938,43.5703125 L34.9692383,42.5385742 L43.0458984,40.7148438 L41.7001953,44.0532227" id="Shape-2" fill="#F5D26A" sketch:type="MSShapeGroup"></path>
                <g id="Group" sketch:type="MSShapeGroup">
                    <path d="M41.817,54.754 C38.22,58.723 35.5,58.5 35.481,61.919 C35.074,63.612 34.767,65.317 34.558,67.042 C34.195,70.037 31.867,82.909 30.842,83.421 C25.008,86.332 16.198,83.745 15.242,83.248 C14.173,82.692 13.588,81.675 13.375,80.524 C13.121,79.151 12.78,77.798 12.533,76.423 C12.103,74.026 11.799,71.616 11.489,69.206 C11.279,67.574 11.129,65.935 10.926,64.301 C10.798,63.269 10.713,62.232 10.554,61.201 C10.407,60.244 10.013,59.378 9.579,58.549 C9.322,58.057 8.68,57.776 8.159,57.7 C6.486,57.453 5.983,56.074 4.923,54.756" id="Shape" stroke="#000000" stroke-width="2"></path>
                    <path d="M4.497,25.436 C2.536,26.377 4.497,25.436 2.876,26.918 C1.682,28.01 0.716,29.277 0.451,30.89 C0.214,32.332 0.433,33.8 0.801,35.208 C1.204,36.752 2.063,38.122 3.203,39.174 C4.122,40.022 5.389,40.482 6.628,40.834 C9.285,41.588 11.98,42.201 14.706,42.62 C17.065,42.983 19.449,43.156 21.841,43.234 C23.308,43.282 24.777,43.329 26.24,43.272 C28.286,43.193 30.333,43.061 32.369,42.842 C35.675,42.486 38.897,41.711 42.119,40.892 C43.394,40.568 43.781,39.703 44.254,38.81 C45.344,36.754 45.585,34.625 44.327,32.552 C43.4,31.025 41.919,30.206 40.23,29.73 C37.848,29.06 35.405,28.84 32.947,28.721 C29.823,28.569 26.693,28.773 23.574,28.62 C21.552,28.521 19.529,28.624 17.517,28.479 C8.982,27.715 6.236,26.647 5.621,25.53 C5.168,24.707 0.352,19.458 8.982,14.011 C8.982,14.011 14.374,10.166 16.332,7.785" id="Shape" stroke="#000000" stroke-width="2"></path>
                    <path d="M41.566,49.317 C40.689,49.331 39.979,49.844 39.187,50.113 C36.679,50.965 34.101,51.491 31.47,51.768 C28.977,52.031 26.475,52.116 23.971,52.052 C21.295,51.984 18.627,51.822 15.964,51.499 C13.664,51.22 11.373,50.916 9.117,50.393 C7.886,50.108 6.649,49.835 5.505,49.256 C5.304,49.154 5.03,49.197 4.789,49.173" id="Shape" stroke="#000000" stroke-width="2"></path>
                    <path d="M41.288,46.418 C40.411,46.432 39.701,46.945 38.909,47.214 C36.401,48.066 33.823,48.592 31.192,48.869 C28.699,49.132 26.197,49.217 23.693,49.153 C21.017,49.085 18.349,48.923 15.686,48.6 C13.386,48.321 11.095,48.017 8.839,47.494 C7.608,47.209 6.371,46.936 5.227,46.357 C5.026,46.255 4.752,46.298 4.511,46.274" id="Shape" stroke="#000000" stroke-width="2"></path>
                    <path d="M40.875,47.867 C40.018,47.881 39.323,48.394 38.55,48.663 C36.098,49.515 33.578,50.041 31.007,50.318 C28.57,50.581 26.124,50.666 23.676,50.602 C21.06,50.534 18.452,50.372 15.849,50.049 C13.601,49.77 11.362,49.466 9.156,48.943 C7.953,48.658 6.743,48.385 5.625,47.806 C5.428,47.704 5.161,47.747 4.926,47.723" id="Shape" stroke="#000000" stroke-width="2"></path>
                    <path d="M5.132,54.018 C8.442,55.262 11.871,55.979 15.424,56.134 C17.563,56.227 19.699,56.367 21.842,56.348 C23.332,56.335 24.822,56.391 26.313,56.412 C28.696,56.445 31.08,56.375 33.45,56.171 C35.234,56.017 37.036,55.92 38.79,55.482 C39.068,55.413 41.583,54.57 41.817,54.754" id="Shape" stroke="#000000" stroke-width="2"></path>
                    <path d="M24.189,0.552 C24.296,1.397 23.324,3.695 22.644,4.145 C21.618,4.824 20.428,5.07 19.309,5.476 C17.138,6.263 15.874,7.832 15.552,9.982 C15.325,11.5 15.884,13 16.937,14.23 C18.151,15.649 19.786,16.352 21.481,16.971 C24.346,18.017 27.284,18.817 30.283,19.326 C33.114,19.806 35.969,20.029 38.863,19.91 C39.877,19.868 40.924,20.407 41.76,21.208 C42.964,22.362 43.682,23.757 44.038,25.337 C44.389,26.898 43.832,28.254 42.825,29.442 C42.577,29.735 42.235,29.958 42.178,30.382" id="Shape" stroke="#000000" stroke-width="2"></path>
                    <path d="M38.933,19.78 C39.285,18.917 39.61,18.024 39.699,17.109 C39.812,15.951 39.632,14.804 38.937,13.792 C37.922,12.313 36.492,11.3 35.03,10.347 C33.643,9.442 32.157,8.693 30.721,7.867 C28.581,6.636 30.178,3.052 24.189,0.552" id="Shape" stroke="#000000" stroke-width="2"></path>
                    <path d="M43.259,40.692 C43.495,41.518 43.041,42.094 42.532,42.633 C42.346,42.83 42.146,43.025 41.948,43.201 C41.256,43.815 41.556,44.607 41.548,45.307 C41.52,47.758 41.519,50.213 41.637,52.66 C41.67,53.348 41.64,54.067 41.817,54.753" id="Shape" stroke="#000000" stroke-width="2"></path>
                    <path d="M3.166,39.322 C2.645,40.219 2.611,41.074 3.293,41.932 C3.424,42.097 3.525,42.332 3.678,42.488 C4.316,43.139 4.526,43.868 4.5,44.803 C4.467,46.001 4.719,47.209 4.795,48.409 C4.912,50.26 5.225,52.098 5.185,53.96" id="Shape" stroke="#000000" stroke-width="2"></path>
                    <circle id="Oval" fill="#000000" cx="38.25" cy="34" r="0.583"></circle>
                    <circle id="Oval" fill="#000000" cx="38.99" cy="38.073" r="0.74"></circle>
                    <circle id="Oval" fill="#000000" cx="36.24" cy="35.678" r="0.74"></circle>
                    <circle id="Oval" fill="#000000" cx="40.241" cy="35.178" r="0.511"></circle>
                    <circle id="Oval" fill="#000000" cx="35.5" cy="38.813" r="0.511"></circle>
                    <circle id="Oval" fill="#000000" cx="38.25" cy="31.167" r="0.511"></circle>
                    <circle id="Oval" fill="#000000" cx="41.817" cy="33.417" r="0.511"></circle>
                    <circle id="Oval" fill="#000000" cx="41.817" cy="37.333" r="0.511"></circle>
                    <circle id="Oval" cx="34.333" cy="35.678" r="0.5"></circle>
                    <circle id="Oval" fill="#000000" cx="34.667" cy="32" r="0.833"></circle>
                    <circle id="Oval" cx="28.985" cy="14.011" r="0.5"></circle>
                    <circle id="Oval" fill="#000000" cx="34.667" cy="25.75" r="0.833"></circle>
                    <circle id="Oval" fill="#000000" cx="40.241" cy="24.75" r="0.583"></circle>
                    <circle id="Oval" fill="#000000" cx="41.306" cy="27.132" r="0.583"></circle>
                    <circle id="Oval" fill="#000000" cx="36.98" cy="25.75" r="0.74"></circle>
                    <circle id="Oval" fill="#000000" cx="38.99" cy="26.621" r="0.511"></circle>
                    <circle id="Oval" fill="#000000" cx="39.73" cy="22.073" r="0.423"></circle>
                    <circle id="Oval" fill="#000000" cx="38.25" cy="23.167" r="0.511"></circle>
                    <circle id="Oval" fill="#000000" cx="35.624" cy="23.167" r="0.833"></circle>
                    <path d="M10.555,61.2 C10.555,63.042 28.507,65.253 35.481,61.919" id="Shape" stroke="#000000"></path>
                    <path d="M10.533,64.677 C10.533,66.519 28.485,68.73 35.459,65.396" id="Shape" stroke="#000000"></path>
                    <path d="M11.69,68.547 C11.69,70.389 28.238,72.6 34.667,69.266" id="Shape" stroke="#000000"></path>
                    <path d="M30.85,63.642 L28.985,78.833" id="Shape" stroke="#000000"></path>
                    <path d="M26.835,63.642 L25.5,80.333" id="Shape" stroke="#000000"></path>
                    <path d="M22.502,63.642 L22.502,81.667" id="Shape" stroke="#000000"></path>
                    <path d="M3.983,33.729 C3.983,35.883 6.219,37.627 8.983,37.627" id="Shape" stroke="#000000"></path>
                </g>
            </g>
        </g>
    </g>
</svg>