<?xml version="1.0" encoding="UTF-8" standalone="no"?>
<svg width="91px" height="53px" viewBox="0 0 91 53" version="1.1" xmlns="http://www.w3.org/2000/svg" xmlns:xlink="http://www.w3.org/1999/xlink" xmlns:sketch="http://www.bohemiancoding.com/sketch/ns">
    <!-- Generator: Sketch 3.2.1 (9977) - http://www.bohemiancoding.com/sketch -->
    <title>sushi</title>
    <desc>Created with Sketch.</desc>
    <defs></defs>
    <g id="Page-1" stroke="none" stroke-width="1" fill="none" fill-rule="evenodd" sketch:type="MSPage">
        <g id="Portrait-Retina" sketch:type="MSArtboardGroup" transform="translate(-657.000000, -474.000000)">
            <g id="sushi" sketch:type="MSLayerGroup" transform="translate(657.000000, 474.000000)">
                <path d="M74.853,35.613 C73.816,36.618 72.55,37.354 71.544,38.399 C70.824,39.151 70.214,40.022 69.581,40.845 C67.808,43.196 66.098,45.594 64.198,47.834 C63.589,48.554 63.011,49.417 61.982,49.417 C60.945,49.417 59.917,49.03 58.982,48.625 C56.402,47.525 54.011,45.966 51.668,44.43 C49.42,42.957 47.236,41.209 44.806,40.037 C41.98,38.668 38.893,37.757 35.861,37.005 C29.545,35.446 23.101,34.773 16.674,33.918 C14.165,33.585 11.624,33.427 9.091,33.38 C8.014,33.356 6.922,33.316 5.853,33.466 C4.602,33.641 3.407,34.091 2.156,34.266 C2.125,32.5 3.138,31.083 4.055,29.675 C4.721,28.654 5.124,27.387 5.915,26.469 C7.871,24.229 16.5686758,12.6028787 19.2426758,11.5258787 C22.4016758,10.2518787 26.1724336,6.90610916 29.5444336,6.16210916 C31.4764336,5.73510916 37.5399997,3.70092959 39.5109997,3.50292959 C41.5849997,3.28892959 44.4419995,2.02148437 46.5389995,2.02148437 C45.0029995,3.53348437 48.0019589,3.20148437 49.9809589,2.02148437 C51.7699589,2.15648437 54.280001,2.3311875 56.085001,2.7421875 C53.362001,4.7131875 63.3039989,5.32666015 66.2172871,6.16210937 C66.8803725,6.34803946 75.1298016,6.70434234 76.1059589,11.5258789 C76.7877253,14.8933295 88.9336576,18.1126021 88.0419941,22.2617187 C86.9487584,27.3487972 72.7496986,33.168356 73.649,34.19 C73.697,34.252 74.481,35.162 74.853,35.613 Z" id="Path-3" fill="#F47958" sketch:type="MSShapeGroup"></path>
                <path d="M89.449,21.698 C85.602,16.766 80.947,12.437 75.715,9.01 C70.586,5.662 65.029,3.524 59.116,2.013 C55.87,1.181 52.514,0.533 49.151,0.58 C45.685,0.643 42.328,1.569 38.9,1.972 C35.963,2.321 33.106,2.875 30.407,4.125 C29.188,4.687 28.056,5.415 26.822,5.954 C25.476,6.539 24.107,7.054 22.769,7.64 C21.17,8.336 19.579,9.128 18.202,10.205 C16.777,11.313 16.073,12.587 15.257,14.147 C14.386,15.833 12.59,17.02 11.299,18.397 C10.674,19.07 9.874,19.838 9.558,20.724 C9.384,21.199 9.067,21.239 8.584,21.484 C7.681,21.942 6.811,22.465 6.003,23.075 C5.235,23.661 4.531,24.333 3.977,25.125 C3.376,25.987 3.043,26.985 2.457,27.856 C1.571,29.193 0.676,30.523 0.281,32.098 C-0.131,33.721 0.091,35.296 0.415,36.91 C1.333,36.958 2.211,36.958 3.123,36.76 C3.74,36.625 4.349,36.443 4.959,36.277 C5.481,36.127 5.616,35.96 6.027,36.356 C6.32,36.642 6.613,36.918 6.914,37.195 C8.988,39.103 11.204,40.861 13.547,42.427 C17.71,45.198 22.277,47.35 27.075,48.783 C31.262,50.033 35.599,50.739 39.969,50.944 C42.518,51.063 45.083,51.015 47.632,50.801 C49.002,50.691 50.362,50.538 51.724,50.34 C52.792,50.176 55.246,50 55.594,50 L56,50 L56,49.837 C56,49.797 55.881,49.766 55.818,49.734 C55.913,49.711 56,49.734 56,49.711 L56,49.688 L55.781,49.759 C55.789,49.767 55.66,49.767 55.668,49.767 L55.603,49.783 L55.781,49.806 C55.797,49.813 56,49.822 56,49.822 L56,49.917 L55.98,49.925 C55.996,49.933 56,49.94 56,49.948 L56,50 L55.81,50 C55.754,50 60.828,52.828 63.305,51.902 C64.223,51.553 64.84,50.712 65.466,49.991 C66.384,48.93 67.223,47.829 68.078,46.712 C69.669,44.654 71.09,42.287 72.934,40.442 C73.978,39.413 75.247,38.645 76.276,37.608 C76.894,36.99 77.358,36.27 77.848,35.558 C77.278,34.814 76.556,33.674 75.923,32.835 C76.73,32.328 77.592,31.805 78.186,31.441 C79.967,30.349 81.756,29.249 83.537,28.156 C86.149,26.557 88.357,25.164 90.162,22.592 L89.449,21.698 L89.449,21.698 Z M74.148,11.036 C71.963,11.923 70.404,13.624 69.233,15.627 C68.576,16.751 68.022,17.939 67.475,19.118 C66.842,20.471 65.829,21.943 65.449,23.376 C65.346,23.296 65.236,23.226 65.133,23.146 C63.732,22.149 62.299,21.23 60.843,20.4 C61.294,19.157 61.373,17.764 61.833,16.497 C62.315,15.152 62.933,13.846 63.693,12.626 C64.896,10.695 66.78,8.423 69.25,8.313 C70.903,9.104 72.541,10.022 74.148,11.036 L74.148,11.036 Z M60.724,5.218 C62.418,5.7 64.12,6.176 65.758,6.817 C62.133,9.271 59.552,14.962 58.871,19.331 C56.987,18.35 55.072,17.519 53.148,16.838 C53.75,12.769 54.874,7.157 60.724,5.218 L60.724,5.218 Z M51.501,3.477 C53.29,3.619 55.126,3.888 56.932,4.3 C52.705,7.363 51.628,12.627 51.09,16.174 C49.182,15.612 47.156,15.026 45.082,14.559 C45.241,14.266 45.32,12.232 45.573,11.187 C45.85,10.008 46.348,8.883 46.997,7.862 C48.13,6.088 49.697,4.553 51.501,3.477 L51.501,3.477 Z M14.964,17.526 C15.661,16.893 16.745,16.172 17.212,15.326 C17.434,14.954 17.521,14.518 17.758,14.147 C18.201,13.442 18.827,12.872 19.484,12.374 C20.924,11.306 22.587,10.561 24.233,9.865 C26.117,9.081 27.985,8.337 29.774,7.356 C31.428,6.446 33.186,5.757 35.022,5.33 C37.199,4.815 39.439,4.665 41.639,4.293 C42.882,4.079 44.109,3.85 45.351,3.66 C45.905,3.573 46.451,3.462 47.005,3.399 C47.607,3.335 47.552,4 47.434,4 L47.418,4 C44.996,6 43.088,9.785 43.199,13.957 C43.199,14.013 43.207,14.096 43.215,14.143 C40.428,13.62 37.603,13.369 34.777,13.653 C31.888,13.946 29.062,14.672 26.18,14.973 C23.837,15.234 21.518,15.695 19.318,16.558 C17.038,17.453 14.956,18.745 12.685,19.671 C13.239,18.848 14.228,18.183 14.964,17.526 L14.964,17.526 Z M39.249,13.941 C39.178,13.886 39.099,13.846 39.02,13.822 C39.083,13.814 39.139,13.838 39.178,13.877 C39.201,13.893 39.225,13.917 39.249,13.941 L39.249,13.941 Z M35.125,16.442 L35.109,16.442 C35.093,16.442 35.101,16.426 35.117,16.402 C35.117,16.379 35.133,16.37 35.149,16.355 L35.156,16.355 L35.172,16.339 C35.172,16.331 35.18,16.331 35.18,16.331 L35.18,16.323 C35.196,16.307 35.211,16.291 35.227,16.283 C35.235,16.275 35.235,16.267 35.243,16.267 C35.251,16.259 35.259,16.244 35.275,16.235 C35.283,16.228 35.291,16.219 35.299,16.204 L35.291,16.204 C35.299,16.196 35.299,16.188 35.299,16.172 C35.306,16.148 35.315,16.125 35.315,16.093 C35.323,16.022 35.331,15.95 35.355,15.95 L35.363,15.95 L35.363,15.958 C35.363,15.958 35.371,15.966 35.371,15.974 C35.387,15.982 35.395,15.99 35.395,15.998 L35.403,15.998 C35.411,15.982 35.411,15.967 35.411,15.951 L35.418,15.951 C35.442,15.951 35.45,15.943 35.466,15.927 C35.458,15.935 35.45,15.951 35.45,15.959 C35.473,15.967 35.482,15.975 35.505,15.975 C35.482,15.999 35.466,16.015 35.442,16.038 C35.442,16.046 35.45,16.046 35.458,16.054 C35.458,16.054 35.458,16.054 35.458,16.063 L35.466,16.063 C35.482,16.054 35.489,16.039 35.498,16.031 L35.498,16.023 L35.514,16.015 C35.514,16.015 35.505,16.023 35.505,16.031 C35.489,16.039 35.482,16.054 35.466,16.071 C35.473,16.079 35.482,16.087 35.482,16.095 C35.482,16.095 35.632,16.103 35.632,16.119 L35.632,16.174 C35.609,16.174 35.584,16.182 35.561,16.182 C35.45,16.261 35.236,16.388 35.221,16.459 C35.213,16.427 35.205,16.396 35.197,16.364 C35.189,16.372 35.173,16.387 35.165,16.396 L35.165,16.404 C35.149,16.418 35.133,16.426 35.125,16.442 L35.125,16.442 Z M35.149,16.672 L35.149,16.743 L35.125,16.743 C35.133,16.719 35.141,16.695 35.149,16.672 L35.149,16.672 Z M9.249,35.898 C11.782,35.969 14.283,36.199 16.832,36.555 C16.721,36.539 16.626,36.523 16.555,36.508 C16.658,36.524 16.793,36.548 16.927,36.563 C16.943,36.571 16.95,36.571 16.967,36.571 C17.023,36.579 17.086,36.587 17.157,36.603 C17.189,36.603 17.22,36.798 17.26,36.805 C17.283,36.805 17.308,37 17.323,37 L17.355,37 C17.363,37 17.371,36.813 17.371,36.821 C17.394,36.821 17.419,36.736 17.434,36.736 C17.45,36.736 17.466,36.689 17.481,36.696 C17.521,36.704 17.544,36.682 17.544,36.682 C23.647,37.584 29.805,38.261 35.797,39.765 C38.67,40.485 41.647,41.334 44.29,42.696 C46.902,44.05 49.388,45.797 51.833,47.427 C41.085,49.358 24.115,48.872 9.249,35.898 L9.249,35.898 Z M55.539,49.758 L55.539,49.75 L55.619,49.75 L55.539,49.758 L55.539,49.758 Z M55.625,49.75 L55.618,49.71 L55.625,49.71 L55.634,49.71 C55.625,49.719 55.625,49.734 55.625,49.75 L55.625,49.75 Z M55.618,49.632 L55.61,49.632 C55.602,49.632 55.586,49.64 55.57,49.64 C55.547,49.648 55.531,49.656 55.507,49.656 C55.436,49.679 55.364,49.703 55.309,49.672 C55.413,49.664 55.523,49.632 55.61,49.592 C55.618,49.592 55.618,49.585 55.625,49.585 L55.634,49.632 L55.618,49.632 L55.618,49.632 Z M73.721,34.275 C74.109,34.718 74.481,35.162 74.853,35.613 C73.816,36.618 72.55,37.354 71.544,38.399 C70.824,39.151 70.214,40.022 69.581,40.845 C67.808,43.196 66.098,45.594 64.198,47.834 C63.589,48.554 63.011,49.417 61.982,49.417 C60.945,49.417 59.917,49.03 58.982,48.625 C56.402,47.525 54.011,45.966 51.668,44.43 C49.42,42.957 47.236,41.209 44.806,40.037 C41.98,38.668 38.893,37.757 35.861,37.005 C29.545,35.446 23.101,34.773 16.674,33.918 C14.165,33.585 11.624,33.427 9.091,33.38 C8.014,33.356 6.922,33.316 5.853,33.466 C4.602,33.641 3.407,34.091 2.156,34.266 C2.125,32.5 3.138,31.083 4.055,29.675 C4.721,28.654 5.124,27.387 5.915,26.469 C7.871,24.229 11.053,23.168 13.727,22.091 C16.886,20.817 19.672,18.949 23.044,18.205 C24.976,17.778 26.938,17.643 28.909,17.445 C30.983,17.231 33.01,16.74 35.107,16.74 C33.571,18.252 32.329,19.66 31.608,21.702 C31.23,22.75 29.838,27 31.951,27 L31.983,27 C33.281,27 32.98,25.37 33.083,24.578 C33.25,23.264 33.701,22.204 34.358,21.057 C35.498,19.046 37.215,17.447 39.194,16.267 C40.983,16.402 42.819,16.763 44.624,17.174 C41.901,19.145 40.35,22.241 39.511,25.424 C39.171,26.722 38.941,28.057 38.743,29.387 C38.663,29.87 38.513,30.446 38.623,30.937 C38.79,31.713 39.668,32.309 40.317,31.621 C40.998,30.909 40.919,29.224 41.077,28.314 C41.322,26.937 41.655,25.576 42.169,24.278 C43.317,21.397 45.439,19.166 48.415,18.176 C50.109,18.651 51.811,19.134 53.449,19.775 C50.956,21.461 49.278,24.255 48.122,26.97 C47.544,28.332 47.077,29.74 46.768,31.189 C46.634,31.806 46.396,32.574 46.539,33.216 C46.689,33.873 47.37,34.474 48.035,34.047 C48.629,33.659 48.621,32.891 48.74,32.274 C48.867,31.609 49.033,30.96 49.231,30.318 C49.689,28.854 50.307,27.429 51.075,26.108 C52.294,24.003 54.265,21.39 56.94,21.272 C58.594,22.064 60.233,22.981 61.84,23.995 C59.007,25.143 57.344,27.62 56.03,30.256 C55.27,31.784 54.597,33.351 53.837,34.879 C53.489,35.591 52.935,36.319 53.141,37.159 C53.331,37.934 54.233,38.489 54.858,37.784 C55.404,37.166 55.729,36.177 56.085,35.433 C56.441,34.697 56.782,33.953 57.13,33.208 C57.739,31.911 58.349,30.596 59.172,29.425 C59.821,28.499 60.62,27.692 61.61,27.137 C62.141,26.836 62.718,26.615 63.304,26.441 C63.731,26.322 64.562,26.338 64.807,26.092 C67.982,28.419 70.966,31.142 73.649,34.19 C73.657,34.198 73.665,34.214 73.681,34.23 L73.689,34.238 C73.697,34.252 73.705,34.259 73.721,34.275 L73.721,34.275 Z M85.824,23.755 C85.824,23.755 85.816,23.755 85.8,23.771 C85.792,23.779 85.784,23.787 85.776,23.787 C85.76,23.803 85.729,23.834 85.681,23.866 C85.65,23.89 85.626,23.913 85.602,23.929 C85.126,24.325 84.739,24.831 84.232,25.18 C83.583,25.623 82.807,25.931 82.111,26.304 C80.916,26.953 79.736,27.626 78.596,28.362 C77.163,29.288 75.707,30.301 74.583,31.599 C72.319,29.074 69.85,26.77 67.246,24.728 C68.915,22.227 69.661,19.179 71.338,16.67 C71.963,15.728 72.739,14.881 73.705,14.287 C74.219,13.97 74.773,13.725 75.343,13.543 C75.795,13.4 76.847,13.376 77.116,13.108 C80.773,15.799 84.185,19.013 87.161,22.646 C86.758,23.036 86.298,23.384 85.824,23.755 L85.824,23.755 Z" id="Shape" fill="#000000" sketch:type="MSShapeGroup"></path>
            </g>
        </g>
    </g>
</svg>