<?xml version="1.0" encoding="UTF-8" standalone="no"?>
<svg width="91px" height="52px" viewBox="0 0 91 52" version="1.1" xmlns="http://www.w3.org/2000/svg" xmlns:xlink="http://www.w3.org/1999/xlink" xmlns:sketch="http://www.bohemiancoding.com/sketch/ns">
    <!-- Generator: Sketch 3.2.1 (9977) - http://www.bohemiancoding.com/sketch -->
    <title>Path 5</title>
    <desc>Created with Sketch.</desc>
    <defs></defs>
    <g id="Page-1" stroke="none" stroke-width="1" fill="none" fill-rule="evenodd" sketch:type="MSPage">
        <g id="Portrait-Retina" sketch:type="MSArtboardGroup" transform="translate(-722.000000, -621.000000)" fill="#000000">
            <path d="M812.339654,642.57775 C808.492654,637.64575 803.837654,633.31675 798.605654,629.88975 C793.476654,626.54175 787.919654,624.40375 782.006654,622.89275 C778.760654,622.06075 775.404654,621.41275 772.041654,621.45975 C768.575654,621.52275 765.218654,622.44875 761.790654,622.85175 C758.853654,623.20075 755.996654,623.75475 753.297654,625.00475 C752.078654,625.56675 750.946654,626.29475 749.712654,626.83375 C748.366654,627.41875 746.997654,627.93375 745.659654,628.51975 C744.060654,629.21575 742.469654,630.00775 741.092654,631.08475 C739.667654,632.19275 738.963654,633.46675 738.147654,635.02675 C737.276654,636.71275 735.480654,637.89975 734.189654,639.27675 C733.564654,639.94975 732.764654,640.71775 732.448654,641.60375 C732.274654,642.07875 731.957654,642.11875 731.474654,642.36375 C730.571654,642.82175 729.701654,643.34475 728.893654,643.95475 C728.125654,644.54075 727.421654,645.21275 726.867654,646.00475 C726.266654,646.86675 725.933654,647.86475 725.347654,648.73575 C724.461654,650.07275 723.566654,651.40275 723.171654,652.97775 C722.759654,654.60075 722.981654,656.17575 723.305654,657.78975 C724.223654,657.83775 725.101654,657.83775 726.013654,657.63975 C726.630654,657.50475 727.239654,657.32275 727.849654,657.15675 C728.371654,657.00675 728.506654,656.83975 728.917654,657.23575 C729.210654,657.52175 729.503654,657.79775 729.804654,658.07475 C731.878654,659.98275 734.094654,661.74075 736.437654,663.30675 C740.600654,666.07775 745.167654,668.22975 749.965654,669.66275 C754.152654,670.91275 758.489654,671.61875 762.859654,671.82375 C765.408654,671.94275 767.973654,671.89475 770.522654,671.68075 C771.892654,671.57075 773.252654,671.41775 774.614654,671.21975 C775.682654,671.05575 778.136654,670.87975 778.484654,670.87975 L778.890654,670.87975 L778.890654,670.71675 C778.890654,670.67675 778.771654,670.64575 778.708654,670.61375 C778.803654,670.59075 778.890654,670.61375 778.890654,670.59075 L778.890654,670.56775 L778.671654,670.63875 C778.679654,670.64675 778.550654,670.64675 778.558654,670.64675 L778.493654,670.66275 L778.671654,670.68575 C778.687654,670.69275 778.890654,670.70175 778.890654,670.70175 L778.890654,670.79675 L778.870654,670.80475 C778.886654,670.81275 778.890654,670.81975 778.890654,670.82775 L778.890654,670.87975 L778.700654,670.87975 C778.644654,670.87975 783.718654,673.70775 786.195654,672.78175 C787.113654,672.43275 787.730654,671.59175 788.356654,670.87075 C789.274654,669.80975 790.113654,668.70875 790.968654,667.59175 C792.559654,665.53375 793.980654,663.16675 795.824654,661.32175 C796.868654,660.29275 798.137654,659.52475 799.166654,658.48775 C799.784654,657.86975 800.248654,657.14975 800.738654,656.43775 C800.168654,655.69375 799.446654,654.55375 798.813654,653.71475 C799.620654,653.20775 800.482654,652.68475 801.076654,652.32075 C802.857654,651.22875 804.646654,650.12875 806.427654,649.03575 C809.039654,647.43675 811.247654,646.04375 813.052654,643.47175 L812.339654,642.57775 L812.339654,642.57775 Z" id="Path-5" sketch:type="MSShapeGroup"></path>
        </g>
    </g>
</svg>